# xmcd
#
# Track frame offsets:
#	150
#	10873
#	24643
#	39470
#	50455
#	63403
#	76288
#	87948
#	98835
#	110875
#
# Disc length: 1618 seconds
#
# Revision: 2
# Processed by: cddbd v1.4PL0 Copyright (c) Steve Scherf et al.
# Submitted via: audiograbber 1.80
#
DISCID=7906500a
DTITLE=Various Artist - Billboard Top Country Hits - 1961
DYEAR=1900
DGENRE=
TTITLE0=Leroy Van Dyke - Walk On By
TTITLE1=Jimmy Dean - Big Bad John
TTITLE2=Marty Robbins - Don't Worry
TTITLE3=Faron Young - Hello Walls
TTITLE4=Johnny Horton - North To Alaska
TTITLE5=Patsy Cline - I Fall To Pieces
TTITLE6=Don Gibson - Sea Of Heartbreak
TTITLE7=George Jones - Tender Years
TTITLE8=Buck Owens - Foolin' Around
TTITLE9=Floyd Cramer - San Antonio Rose
EXTD=
EXTT0=Leroy Van Dyke
EXTT1=Jimmy Dean
EXTT2=Marty Robbins
EXTT3=Faron Young
EXTT4=Johnny Horton
EXTT5=Patsy Cline
EXTT6=Don Gibson
EXTT7=George Jones
EXTT8=Buck Owens
EXTT9=Floyd Cramer
PLAYORDER=
